<svg version="1.2" xmlns="http://www.w3.org/2000/svg" viewBox="0 0 256 256" width="256" height="256"><style>.a{fill:#00709e}.b{fill:#f7f7f7}.c{fill:#fdcf2f}.d{fill:#fff}</style><path class="a" d="m24.6 146.5l42.6-73.9h85.3l42.6 73.9-42.6 73.8h-85.3z"/><path class="b" d="m96 145.9q7.1 6.5 16.5 5.9 9.4-0.6 15.7-7.9l11.5 10.4q-10.4 12.1-26.2 13.1-15.8 1-27.6-9.7-11.8-10.7-12.7-26.9-1-16.3 9.4-28.4 10.4-12.1 26.2-13 15.8-1 27.6 9.7 15.3 14 12.6 34.7l-59 3.8q2.2 4.8 6 8.3zm30.3-35.1q-7.1-6.4-16.6-5.8-9.4 0.6-15.6 7.8-3.6 4.3-5 9.1l43.1-2.7q-1.8-4.6-5.9-8.4z"/><path fill-rule="evenodd" class="c" d="m110.2 32.6c3.2-4.7 11-17 18.5-17 9.2 0 11.2 21.5 11.5 35z"/><path fill-rule="evenodd" class="d" d="m94.9 59.9l13.8-1.3c12-17.7 16.2-16.7 18 1.5l13.7 2.8q-0.1-6.1-0.2-12.3c-5.5-3.7-8.5-7-13.5-11-3.5-3-10-6.2-16.5-7-5.8 9.3-9.5 15.5-15.3 27.3z"/><path fill-rule="evenodd" class="c" d="m202.4 79.4c14.8-2 29-0.5 29 8.7 0 10.8-18.7 26.3-22.2 29.8-4.5-10.3-2.5-26.3-6.8-38.5z"/><path fill-rule="evenodd" class="d" d="m174.4 85.6l9.3 9.5c19.2-1.2 25.7 3 11.2 16.3l7 12.7c3.3-2.7 4.5-3.7 7.3-6.2-3-8.5 2.5-9.3 2.5-20.3 0-4.7-0.8-10-9.3-18.2-7.2 0.7-15.7 2.2-28 6.2z"/><path class="d" d="m110.6 233h-6.3l5.6-49.6h-4.1v18.9h-6.3v-24.6h16.6v5.6z"/><path class="d" d="m127.5 190.4v23h4.1v-23zm-6.2 28.7v-26.3q0-1.7 0.6-3.2 0.7-1.5 1.8-2.7 1.2-1.1 2.6-1.7 1.6-0.7 3.3-0.7 1.6 0 3.2 0.7 1.5 0.6 2.6 1.7 1.1 1.2 1.8 2.7 0.6 1.5 0.6 3.2v39.1q0 1.7-0.6 3.3-0.7 1.5-1.8 2.6-1.1 1.1-2.6 1.7-1.5 0.7-3.2 0.7-1.7 0-3.2-0.7-1.5-0.6-2.7-1.7-1.1-1.1-1.8-2.6-0.6-1.6-0.6-3.3v-8.7h6.2v11h4.1v-15.1z"/><path class="d" d="m85 240v-49.7h-4.1v-5.7h3.2q1.4 0 2.7 0.7 1.9 1 3.2 3 1.2 2 1.2 4.3v47.4z"/></svg>