<svg version="1.2" xmlns="http://www.w3.org/2000/svg" viewBox="0 0 1024 1024" width="256" height="256"><style>.a{fill:#00709e}.b{fill:#f7f7f7}.c{fill:#fd2fc5}.d{fill:#fff}</style><path class="a" d="m98.2 585.9l170.6-295.4h341l170.5 295.4-170.5 295.3h-341z"/><path class="b" d="m384.1 583.8q28.4 25.8 66 23.4 37.7-2.3 62.8-31.5l45.8 41.6q-41.7 48.4-104.8 52.4-63.2 4-110.3-38.8-47-42.8-50.9-107.8-3.9-65 37.8-113.3 41.6-48.4 104.8-52.4 63.1-4 110.2 38.8 61.3 56.4 50.3 139.2l-235.6 14.8q8.4 19.5 23.9 33.6zm120.9-140.5q-28.4-25.8-66-23.4-37.7 2.3-62.8 31.5-14.2 17.2-19.8 36.3l172.6-10.8q-7.2-18.4-24-33.6z"/><path fill-rule="evenodd" class="c" d="m440.8 130.5c13-19 44-68 74-68 37 0 45 86 46 140z"/><path fill-rule="evenodd" class="d" d="m379.8 239.5l55-5c48-71 65-67 72 6l55 11q-0.5-24.5-1-49c-22-15-34-28-54-44-14-12-40-25-66-28-23 37-38 62-61 109z"/><path fill-rule="evenodd" class="c" d="m809.8 317.5c59-8 116-2 116 35 0 43-75 105-89 119-18-41-10-105-27-154z"/><path fill-rule="evenodd" class="d" d="m697.8 342.5l37 38c77-5 103 12 45 65l28 51c13-11 18-15 29-25-12-34 10-37 10-81 0-19-3-40-37-73-29 3-63 9-112 25z"/><path class="d" d="m423 734.7v92.1h16.5v-92.1zm-24.8 114.6v-105.1q0-6.8 2.5-12.8 2.7-6.1 7.2-10.6 4.5-4.6 10.4-7 6-2.7 12.8-2.7 6.8 0 12.9 2.7 6.1 2.4 10.6 7 4.5 4.5 7 10.6 2.7 6 2.7 12.8v156.5q0 6.8-2.7 12.9-2.5 6.1-7 10.6-4.3 4.3-10.4 7-6.1 2.5-12.9 2.5-6.7 0-12.8-2.5-6.1-2.7-10.6-7-4.5-4.5-7.2-10.6-2.5-6.1-2.5-12.9v-34.9h24.8v44.2h16.5v-60.7z"/><path class="d" d="m485 876.5v-137.8h25v115.1h16.5v-98.6h25v204.8h-25v-83.5z"/><path class="d" d="m352.5 937.4v-60.6h-16.5v60.6zm24.8-83.4v74q0 6.7-2.7 12.8-2.4 6.1-7 10.6-4.2 4.5-10.3 7.2-6.1 2.5-12.9 2.5-6.8 0-12.8-2.5-6.1-2.7-10.6-7.2-4.6-4.5-7.3-10.6-2.4-6.1-2.4-12.8v-156.6q0-6.7 2.4-12.8 2.7-6.1 7-10.4 4.5-4.5 10.6-7 6.1-2.7 12.9-2.7 6.7 0 12.8 2.7 6.1 2.5 10.6 7 4.6 4.3 7 10.4 2.7 6.1 2.7 12.8v66.1h-24.8v-75.3h-16.4v91.8z"/></svg>